<svg id="svg" version="1.1" xmlns="http://www.w3.org/2000/svg" width="400" height="181.25"><g id="svgg"><path id="path0" d="M271.5 7.75c-.825.825-1.402 4.059-1.282 7.188l.219 5.687.473-5.215c.654-7.192 3.071-9.002 8.234-6.165l3.981 2.187-2.951-2.591c-3.324-2.919-6.453-3.312-8.674-1.091m-147.75.806c0 1.683 3.756 4.451 12.728 9.382 7.561 4.155 12.272 9.335 12.272 13.494 0 1.222-8.805-2.106-14.691-5.553-3.116-1.824-5.453-2.208-10-1.646-9.662 1.197-10.345 1.06-24.684-4.947-23.255-9.741-27.109-7.639-6.096 3.325 12.421 6.482 15.259 9.528 16.859 18.093 3.451 18.468 22.837 23.084 98.612 23.477l33.125.172-19.375 1.155c-31.993 1.909-89.27-2.43-114.022-8.638-23.504-5.894-25.582-11.043-6.29-15.577 3.609-.848 6.562-2.087 6.562-2.752 0-.665-.984-.938-2.187-.605-1.204.332-4.978.985-8.389 1.45-14.432 1.969-24.476 8.293-22.593 14.226 10.735 33.823 220.404 37.473 251.097 4.371 8.452-9.115.351-15.482-25.115-19.741-4.916-.822-5.493 1.414-.625 2.423 28.027 5.81 16.104 14.143-29.503 20.622-9.383 1.333-19.31 2.363-22.06 2.287-2.75-.075.625-.839 7.5-1.698 29.718-3.713 44.415-16.908 39.435-35.402-1.471-5.463-3.81-7.085-3.81-2.642 0 3.149-1.959 7.106-5.374 10.856-3.494 3.836-4.21 3.545-3.624-1.474.607-5.194-1.336-11.487-5.137-16.638l-2.823-3.828.041 7.064c.114 19.186-23.375 28.311-50.583 19.652-5.844-1.86-18.219-5.3-27.5-7.645-10.079-2.546-20.364-6.071-25.539-8.752-7.523-3.898-9.415-4.387-14.375-3.708-5.09.696-7.178.094-19.2-5.539-14.526-6.806-14.636-6.845-14.636-5.264m32.404 5.819c-.052 0-.295 1.058-.538 2.351-.329 1.748-.081 1.989.971.937.777-.777 2.674-1.413 4.214-1.413 1.541 0 3.062-.422 3.381-.937.319-.516-1.336-.938-3.676-.938h-4.352m8.95 2.341c1.286 1.151 8.646 4.533 8.646 3.973 0-.72-6.93-4.439-8.271-4.439-.493 0-.661.21-.375.466M289 17.75c-2.422 2.422-1.718 4.085.775 1.829 2.535-2.294 4.962-1.151 7.532 3.546.752 1.375 1.384 1.873 1.405 1.106.127-4.665-6.863-9.33-9.712-6.481M83.446 51.227c1.695 2.715 12.65 8.715 16.2 8.872 1.408.062 1.631.338.606.749C95.73 62.661 80 54.551 80 50.407c0-2.422 1.669-2.024 3.446.82m242.176-1.233c1.908 3.088-17.474 13.571-20.148 10.897-.325-.325.983-.978 2.905-1.451 5.354-1.318 14.121-6.824 14.121-8.868 0-2.077 1.97-2.441 3.122-.578M103.729 74.961c1.917 3.581 10.544 8.187 21.271 11.357 5.156 1.523 10.296 3.567 11.422 4.543 16.947 14.676 105.875 15.397 130.469 1.056 2.759-1.609 8.384-3.895 12.5-5.081 12.602-3.63 25.276-11.336 22.769-13.843-.408-.407-5.701.42-11.763 1.838-44.886 10.502-130.999 10.565-175.183.128-12.917-3.051-13.119-3.051-11.485.002m11.772 46.171c-16.877 7.664-15.296 37.472 2.174 40.965 4.534.907 4.499 1.818-.175 4.579-4.797 2.834-4.864 4.832-.107 3.174 2.831-.987 5.576-.694 12.322 1.315 10.779 3.21 13.827 3.208 17.785-.015l3.125-2.544-3.75.653c-2.251.392-7.248-.534-12.5-2.314l-8.75-2.967 5.381-.91c20.883-3.53 26.19-32.067 7.718-41.505-6.82-3.486-16.117-3.658-23.223-.431m113.24.431c-.663 1.546-4.246 10.406-7.962 19.687-4.725 11.802-7.549 17.246-9.393 18.109-4.422 2.07-2.976 3.141 4.239 3.141 3.781 0 6.875-.562 6.875-1.25 0-.687-.844-1.25-1.875-1.25-2.151 0-2.427-3.386-.656-8.044 1.418-3.728 14.583-4.883 17.371-1.524 2.592 3.124 3.226 9.568.941 9.568-1.117 0-2.031.563-2.031 1.25 0 .722 3.958 1.25 9.375 1.25 8.689 0 12.318-1.413 7.188-2.799-1.447-.391-5.092-7.431-10.755-20.771-8.614-20.29-10.827-23.176-13.317-17.367M6.875 121.25c.425.688 1.583 1.25 2.574 1.25 3.27 0 2.587 36.278-.699 37.138-5.584 1.46-1.91 2.862 7.5 2.862 9.168 0 13.857-1.778 7.188-2.726-2.754-.391-2.82-.788-3.159-18.836l-.346-18.438 3.471.04c5.458.062 7.846 2.652 7.846 8.506 0 5.31-4.396 10.248-7.445 8.363-.718-.444-1.305-.249-1.305.433 0 4.361 11.784 1.512 15.462-3.738 2.767-3.951 2.635-11.426-.248-14.035-2.651-2.399-32.302-3.187-30.839-.819m41.875-.146c0 .608 1.125 1.399 2.5 1.758 4.358 1.14 3.622 37.138-.759 37.138-.957 0-1.741.563-1.741 1.25 0 .722 3.958 1.25 9.375 1.25s9.375-.528 9.375-1.25c0-.687-1.125-1.25-2.5-1.25-2.389 0-2.5-.833-2.5-18.75s.111-18.75 2.5-18.75c1.375 0 2.5-.562 2.5-1.25 0-.722-3.958-1.25-9.375-1.25-5.156 0-9.375.497-9.375 1.104m27.5 0c0 .608 1.125 1.399 2.5 1.758 4.358 1.14 3.622 37.138-.759 37.138-.957 0-1.741.563-1.741 1.25 0 .722 3.958 1.25 9.375 1.25S95 161.972 95 161.25c0-.687-1.125-1.25-2.5-1.25-2.389 0-2.5-.833-2.5-18.75s.111-18.75 2.5-18.75c1.375 0 2.5-.562 2.5-1.25 0-.722-3.958-1.25-9.375-1.25-5.156 0-9.375.497-9.375 1.104m81.25-.448c0 .361 1.406 1.191 3.125 1.844 3.111 1.183 3.125 1.26 3.125 17.358v16.17l3.756 3.16c7.189 6.05 21.362 5.46 27.575-1.146 2.823-3 3.074-4.343 3.46-18.451.319-11.634.879-15.731 2.381-17.403 1.846-2.055 1.57-2.188-4.552-2.188-4.027 0-6.222.478-5.745 1.25.425.688 1.583 1.25 2.574 1.25 2.142 0 2.666 27.298.599 31.161-2.858 5.339-13.939 6.361-19.028 1.755-3.831-3.466-3.374-32.002.543-33.89 2.276-1.099.848-1.373-7.5-1.441-5.672-.047-10.313.21-10.313.571m105.625.594c.425.688 1.517 1.25 2.428 1.25 2.336 0 3.16 4.085 3.18 15.763.026 15.48-1.098 21.737-3.903 21.737-1.281 0-2.33.563-2.33 1.25 0 .694 3.333 1.25 7.5 1.25s7.5-.556 7.5-1.25c0-.687-1.065-1.25-2.366-1.25-3.362 0-3.884-2.283-3.884-16.977 0-14.162.22-14.669 4.179-9.636 11.568 14.706 24.986 29.113 27.114 29.113 2.336 0 2.457-.946 2.457-19.223 0-18.519.103-19.294 2.813-21.184 2.698-1.882 2.517-1.965-4.449-2.027-4.538-.041-6.972.403-6.489 1.184.425.688 1.583 1.25 2.574 1.25 1.464 0 1.792 2.63 1.754 14.063l-.047 14.062-4.382-5c-2.411-2.75-8.105-9.641-12.655-15.312L275.846 120h-6.747c-4.179 0-6.453.476-5.974 1.25m53.859 3.438c1.084 5.993 1.458 6.348 2.466 2.334.746-2.972 1.382-3.272 6.936-3.272h6.114v14.219c0 17.666-.774 22.031-3.906 22.031-1.289 0-2.344.563-2.344 1.25 0 .729 4.167 1.25 10 1.25s10-.521 10-1.25c0-.687-1.065-1.25-2.366-1.25-3.453 0-3.884-2.231-3.884-20.102V123.75h6.25c5.353 0 6.25.348 6.25 2.426 0 4.718 2.246 3.739 2.715-1.183l.476-4.993h-39.554l.847 4.688m45.516-3.438c0 .688 1.125 1.25 2.5 1.25 3.495 0 3.883 33.9.431 37.714-1.994 2.203-1.495 2.286 13.75 2.286H395v-5.074c0-3.064-.495-4.768-1.25-4.301-.687.425-1.25 1.864-1.25 3.199 0 2.153-.916 2.426-8.125 2.426h-8.125v-17.644l5.283.385c4.005.291 5.62 1.063 6.674 3.189 1.951 3.934 3.043 2.18 3.043-4.888 0-6.102-1.657-8.152-2.862-3.542-.535 2.047-1.705 2.5-6.456 2.5h-5.801l.372-7.812c.341-7.152.624-7.849 3.348-8.234 5.742-.812 11.399.976 11.399 3.603 0 1.343.563 2.443 1.25 2.443.688 0 1.25-1.969 1.25-4.375V120h-15.625c-9.583 0-15.625.483-15.625 1.25m-228.681 2.537c9.329 4.993 8.699 31.392-.835 35.017-14.266 5.423-25.537-11.792-18.596-28.404 3.097-7.412 12.169-10.5 19.431-6.613m98.514 13.88c3.574 8.598 3.58 8.583-3.687 8.583-3.495 0-6.167-.438-5.938-.972.23-.535 1.512-3.91 2.851-7.5 3.013-8.077 3.461-8.084 6.774-.111" stroke="none" fill="#000" fill-rule="evenodd"/></g></svg>