<svg id="svg" version="1.1" xmlns="http://www.w3.org/2000/svg" xmlns:xlink="http://www.w3.org/1999/xlink" width="400" height="400" viewBox="0, 0, 400,400"><g id="svgg"><path id="path0" d="M275.000 104.037 L 260.500 116.946 236.405 116.973 C 208.590 117.004,211.520 115.897,205.065 128.818 C 200.101 138.753,199.669 138.731,194.500 128.280 C 188.388 115.924,191.324 117.000,163.731 117.000 L 139.706 117.000 135.322 113.407 C 132.910 111.431,126.468 105.806,121.005 100.907 C 110.668 91.637,108.770 90.693,107.025 93.952 C 106.108 95.666,107.382 97.154,117.451 106.128 C 131.956 119.056,132.002 116.665,116.943 132.333 L 104.000 145.799 104.009 159.649 L 104.017 173.500 110.462 180.500 L 116.907 187.500 117.024 213.500 C 117.088 227.800,117.446 240.258,117.820 241.185 C 118.890 243.839,139.164 265.106,150.066 275.011 L 159.959 284.000 200.238 284.000 L 240.517 284.000 261.759 262.741 L 283.000 241.483 283.000 214.801 L 283.000 188.119 290.000 180.569 L 297.000 173.020 297.000 159.130 L 297.000 145.240 283.921 132.650 C 268.322 117.635,268.411 119.243,282.507 107.080 C 293.708 97.417,295.577 94.626,292.404 92.306 C 289.935 90.501,291.043 89.754,275.000 104.037 M140.168 126.750 C 146.998 132.205,157.000 141.373,157.000 142.178 C 157.000 142.630,154.637 143.007,151.750 143.015 C 143.419 143.040,143.499 142.882,143.505 159.214 C 143.512 178.624,142.027 177.000,159.769 177.000 C 177.213 177.000,177.000 177.114,177.000 167.800 C 177.000 159.165,177.468 159.189,187.402 168.326 L 195.303 175.595 190.518 184.859 C 183.666 198.127,186.596 197.000,158.944 197.000 L 135.032 197.000 132.163 194.250 C 130.586 192.738,125.179 186.955,120.148 181.400 L 111.000 171.300 111.000 159.493 L 111.000 147.685 122.697 135.843 C 135.654 122.724,135.335 122.890,140.168 126.750 M191.175 137.875 C 200.421 156.400,199.120 156.326,208.038 138.837 C 216.248 122.736,214.080 124.000,233.490 124.000 C 251.254 124.000,252.828 124.533,247.246 128.660 C 245.731 129.780,234.685 139.315,222.699 149.848 C 210.713 160.382,200.494 169.000,199.990 169.000 C 199.486 169.000,189.774 160.875,178.408 150.944 C 167.042 141.013,156.001 131.487,153.871 129.776 C 147.044 124.290,147.935 123.920,167.250 124.226 L 184.500 124.500 191.175 137.875 M277.235 136.734 L 289.000 148.469 289.000 159.758 L 289.000 171.047 276.859 183.524 L 264.717 196.000 240.496 196.000 L 216.275 196.000 211.138 186.278 C 204.764 174.218,204.595 175.600,213.422 167.669 C 222.738 159.297,222.852 159.310,223.208 168.750 L 223.500 176.500 240.000 176.500 L 256.500 176.500 256.787 162.000 C 257.174 142.464,257.366 143.000,249.981 143.000 C 241.955 143.000,242.258 142.070,253.310 132.756 C 264.801 123.074,263.287 122.822,277.235 136.734 M167.777 151.557 C 169.734 152.927,170.000 154.000,170.000 160.522 C 170.000 169.564,169.205 170.218,158.734 169.793 L 151.500 169.500 151.207 161.084 C 151.046 156.455,151.144 152.067,151.425 151.334 C 152.184 149.358,164.886 149.532,167.777 151.557 M247.800 151.200 C 249.586 152.986,249.396 167.426,247.567 168.945 C 245.810 170.403,231.883 169.295,230.765 167.609 C 229.492 165.687,229.891 153.336,231.263 152.197 C 232.445 151.215,236.402 150.562,243.550 150.168 C 245.227 150.076,247.140 150.540,247.800 151.200 M204.906 190.612 C 208.782 198.896,208.767 199.527,204.487 208.025 C 200.116 216.706,199.291 216.678,195.233 207.716 C 191.228 198.871,191.208 199.614,195.682 191.049 C 200.221 182.360,201.026 182.322,204.906 190.612 M274.830 221.546 C 274.504 238.486,273.805 242.000,270.761 242.000 C 269.150 242.000,270.276 203.078,271.976 200.000 L 273.357 197.500 274.258 200.947 C 274.754 202.843,275.011 212.112,274.830 221.546 M127.965 200.934 C 129.967 204.676,129.311 242.206,127.250 241.813 C 125.798 241.537,125.390 239.951,124.856 232.490 C 122.987 206.411,124.217 193.931,127.965 200.934 M184.849 205.750 C 185.987 206.713,189.654 213.044,192.996 219.821 C 200.277 234.580,199.732 234.631,207.942 218.436 L 214.500 205.500 220.500 204.679 C 226.569 203.848,259.504 204.575,261.123 205.576 C 261.605 205.874,262.000 216.614,262.000 229.442 L 262.000 252.767 249.951 264.383 L 237.902 276.000 199.701 275.998 L 161.500 275.996 149.384 264.542 L 137.267 253.088 136.565 245.959 C 136.178 242.038,136.182 230.993,136.574 221.415 L 137.286 204.000 160.032 204.000 C 180.240 204.000,183.009 204.195,184.849 205.750 M134.596 304.306 C 133.498 305.109,132.943 306.554,133.155 308.056 L 133.500 310.500 158.000 310.782 C 171.475 310.936,183.512 310.815,184.750 310.513 C 188.050 309.705,187.836 305.268,184.435 303.975 C 180.356 302.425,136.774 302.714,134.596 304.306 M214.217 304.183 C 208.331 310.069,213.009 311.166,242.392 310.792 C 267.052 310.477,269.348 309.947,266.387 305.250 C 264.975 303.010,216.383 302.017,214.217 304.183 " stroke="none" fill="#000000" fill-rule="evenodd"></path></g></svg>