<svg id="svg" version="1.1" xmlns="http://www.w3.org/2000/svg" xmlns:xlink="http://www.w3.org/1999/xlink" width="400" height="181.25" viewBox="0, 0, 400,181.25"><g id="svgg"><path id="path0" d="M271.500 7.750 C 270.675 8.575,270.098 11.809,270.218 14.938 L 270.437 20.625 270.910 15.410 C 271.564 8.218,273.981 6.408,279.144 9.245 L 283.125 11.432 280.174 8.841 C 276.850 5.922,273.721 5.529,271.500 7.750 M123.750 8.556 C 123.750 10.239,127.506 13.007,136.478 17.938 C 144.039 22.093,148.750 27.273,148.750 31.432 C 148.750 32.654,139.945 29.326,134.059 25.879 C 130.943 24.055,128.606 23.671,124.059 24.233 C 114.397 25.430,113.714 25.293,99.375 19.286 C 76.120 9.545,72.266 11.647,93.279 22.611 C 105.700 29.093,108.538 32.139,110.138 40.704 C 113.589 59.172,132.975 63.788,208.750 64.181 L 241.875 64.353 222.500 65.508 C 190.507 67.417,133.230 63.078,108.478 56.870 C 84.974 50.976,82.896 45.827,102.188 41.293 C 105.797 40.445,108.750 39.206,108.750 38.541 C 108.750 37.876,107.766 37.603,106.563 37.936 C 105.359 38.268,101.585 38.921,98.174 39.386 C 83.742 41.355,73.698 47.679,75.581 53.612 C 86.316 87.435,295.985 91.085,326.678 57.983 C 335.130 48.868,327.029 42.501,301.563 38.242 C 296.647 37.420,296.070 39.656,300.938 40.665 C 328.965 46.475,317.042 54.808,271.435 61.287 C 262.052 62.620,252.125 63.650,249.375 63.574 C 246.625 63.499,250.000 62.735,256.875 61.876 C 286.593 58.163,301.290 44.968,296.310 26.474 C 294.839 21.011,292.500 19.389,292.500 23.832 C 292.500 26.981,290.541 30.938,287.126 34.688 C 283.632 38.524,282.916 38.233,283.502 33.214 C 284.109 28.020,282.166 21.727,278.365 16.576 L 275.542 12.748 275.583 19.812 C 275.697 38.998,252.208 48.123,225.000 39.464 C 219.156 37.604,206.781 34.164,197.500 31.819 C 187.421 29.273,177.136 25.748,171.961 23.067 C 164.438 19.169,162.546 18.680,157.586 19.359 C 152.496 20.055,150.408 19.453,138.386 13.820 C 123.860 7.014,123.750 6.975,123.750 8.556 M156.154 14.375 C 156.102 14.375,155.859 15.433,155.616 16.726 C 155.287 18.474,155.535 18.715,156.587 17.663 C 157.364 16.886,159.261 16.250,160.801 16.250 C 162.342 16.250,163.863 15.828,164.182 15.313 C 164.501 14.797,162.846 14.375,160.506 14.375 C 158.165 14.375,156.207 14.375,156.154 14.375 M165.104 16.716 C 166.390 17.867,173.750 21.249,173.750 20.689 C 173.750 19.969,166.820 16.250,165.479 16.250 C 164.986 16.250,164.818 16.460,165.104 16.716 M289.000 17.750 C 286.578 20.172,287.282 21.835,289.775 19.579 C 292.310 17.285,294.737 18.428,297.307 23.125 C 298.059 24.500,298.691 24.998,298.712 24.231 C 298.839 19.566,291.849 14.901,289.000 17.750 M83.446 51.227 C 85.141 53.942,96.096 59.942,99.646 60.099 C 101.054 60.161,101.277 60.437,100.252 60.848 C 95.730 62.661,80.000 54.551,80.000 50.407 C 80.000 47.985,81.669 48.383,83.446 51.227 M325.622 49.994 C 327.530 53.082,308.148 63.565,305.474 60.891 C 305.149 60.566,306.457 59.913,308.379 59.440 C 313.733 58.122,322.500 52.616,322.500 50.572 C 322.500 48.495,324.470 48.131,325.622 49.994 M103.729 74.961 C 105.646 78.542,114.273 83.148,125.000 86.318 C 130.156 87.841,135.296 89.885,136.422 90.861 C 153.369 105.537,242.297 106.258,266.891 91.917 C 269.650 90.308,275.275 88.022,279.391 86.836 C 291.993 83.206,304.667 75.500,302.160 72.993 C 301.752 72.586,296.459 73.413,290.397 74.831 C 245.511 85.333,159.398 85.396,115.214 74.959 C 102.297 71.908,102.095 71.908,103.729 74.961 M115.501 121.132 C 98.624 128.796,100.205 158.604,117.675 162.097 C 122.209 163.004,122.174 163.915,117.500 166.676 C 112.703 169.510,112.636 171.508,117.393 169.850 C 120.224 168.863,122.969 169.156,129.715 171.165 C 140.494 174.375,143.542 174.373,147.500 171.150 L 150.625 168.606 146.875 169.259 C 144.624 169.651,139.627 168.725,134.375 166.945 L 125.625 163.978 131.006 163.068 C 151.889 159.538,157.196 131.001,138.724 121.563 C 131.904 118.077,122.607 117.905,115.501 121.132 M228.741 121.563 C 228.078 123.109,224.495 131.969,220.779 141.250 C 216.054 153.052,213.230 158.496,211.386 159.359 C 206.964 161.429,208.410 162.500,215.625 162.500 C 219.406 162.500,222.500 161.938,222.500 161.250 C 222.500 160.563,221.656 160.000,220.625 160.000 C 218.474 160.000,218.198 156.614,219.969 151.956 C 221.387 148.228,234.552 147.073,237.340 150.432 C 239.932 153.556,240.566 160.000,238.281 160.000 C 237.164 160.000,236.250 160.563,236.250 161.250 C 236.250 161.972,240.208 162.500,245.625 162.500 C 254.314 162.500,257.943 161.087,252.813 159.701 C 251.366 159.310,247.721 152.270,242.058 138.930 C 233.444 118.640,231.231 115.754,228.741 121.563 M6.875 121.250 C 7.300 121.938,8.458 122.500,9.449 122.500 C 12.719 122.500,12.036 158.778,8.750 159.638 C 3.166 161.098,6.840 162.500,16.250 162.500 C 25.418 162.500,30.107 160.722,23.438 159.774 C 20.684 159.383,20.618 158.986,20.279 140.938 L 19.933 122.500 23.404 122.540 C 28.862 122.602,31.250 125.192,31.250 131.046 C 31.250 136.356,26.854 141.294,23.805 139.409 C 23.087 138.965,22.500 139.160,22.500 139.842 C 22.500 144.203,34.284 141.354,37.962 136.104 C 40.729 132.153,40.597 124.678,37.714 122.069 C 35.063 119.670,5.412 118.882,6.875 121.250 M48.750 121.104 C 48.750 121.712,49.875 122.503,51.250 122.862 C 55.608 124.002,54.872 160.000,50.491 160.000 C 49.534 160.000,48.750 160.563,48.750 161.250 C 48.750 161.972,52.708 162.500,58.125 162.500 C 63.542 162.500,67.500 161.972,67.500 161.250 C 67.500 160.563,66.375 160.000,65.000 160.000 C 62.611 160.000,62.500 159.167,62.500 141.250 C 62.500 123.333,62.611 122.500,65.000 122.500 C 66.375 122.500,67.500 121.938,67.500 121.250 C 67.500 120.528,63.542 120.000,58.125 120.000 C 52.969 120.000,48.750 120.497,48.750 121.104 M76.250 121.104 C 76.250 121.712,77.375 122.503,78.750 122.862 C 83.108 124.002,82.372 160.000,77.991 160.000 C 77.034 160.000,76.250 160.563,76.250 161.250 C 76.250 161.972,80.208 162.500,85.625 162.500 C 91.042 162.500,95.000 161.972,95.000 161.250 C 95.000 160.563,93.875 160.000,92.500 160.000 C 90.111 160.000,90.000 159.167,90.000 141.250 C 90.000 123.333,90.111 122.500,92.500 122.500 C 93.875 122.500,95.000 121.938,95.000 121.250 C 95.000 120.528,91.042 120.000,85.625 120.000 C 80.469 120.000,76.250 120.497,76.250 121.104 M157.500 120.656 C 157.500 121.017,158.906 121.847,160.625 122.500 C 163.736 123.683,163.750 123.760,163.750 139.858 L 163.750 156.028 167.506 159.188 C 174.695 165.238,188.868 164.648,195.081 158.042 C 197.904 155.042,198.155 153.699,198.541 139.591 C 198.860 127.957,199.420 123.860,200.922 122.188 C 202.768 120.133,202.492 120.000,196.370 120.000 C 192.343 120.000,190.148 120.478,190.625 121.250 C 191.050 121.938,192.208 122.500,193.199 122.500 C 195.341 122.500,195.865 149.798,193.798 153.661 C 190.940 159.000,179.859 160.022,174.770 155.416 C 170.939 151.950,171.396 123.414,175.313 121.526 C 177.589 120.427,176.161 120.153,167.813 120.085 C 162.141 120.038,157.500 120.295,157.500 120.656 M263.125 121.250 C 263.550 121.938,264.642 122.500,265.553 122.500 C 267.889 122.500,268.713 126.585,268.733 138.263 C 268.759 153.743,267.635 160.000,264.830 160.000 C 263.549 160.000,262.500 160.563,262.500 161.250 C 262.500 161.944,265.833 162.500,270.000 162.500 C 274.167 162.500,277.500 161.944,277.500 161.250 C 277.500 160.563,276.435 160.000,275.134 160.000 C 271.772 160.000,271.250 157.717,271.250 143.023 C 271.250 128.861,271.470 128.354,275.429 133.387 C 286.997 148.093,300.415 162.500,302.543 162.500 C 304.879 162.500,305.000 161.554,305.000 143.277 C 305.000 124.758,305.103 123.983,307.813 122.093 C 310.511 120.211,310.330 120.128,303.364 120.066 C 298.826 120.025,296.392 120.469,296.875 121.250 C 297.300 121.938,298.458 122.500,299.449 122.500 C 300.913 122.500,301.241 125.130,301.203 136.563 L 301.156 150.625 296.774 145.625 C 294.363 142.875,288.669 135.984,284.119 130.313 L 275.846 120.000 269.099 120.000 C 264.920 120.000,262.646 120.476,263.125 121.250 M316.984 124.688 C 318.068 130.681,318.442 131.036,319.450 127.022 C 320.196 124.050,320.832 123.750,326.386 123.750 L 332.500 123.750 332.500 137.969 C 332.500 155.635,331.726 160.000,328.594 160.000 C 327.305 160.000,326.250 160.563,326.250 161.250 C 326.250 161.979,330.417 162.500,336.250 162.500 C 342.083 162.500,346.250 161.979,346.250 161.250 C 346.250 160.563,345.185 160.000,343.884 160.000 C 340.431 160.000,340.000 157.769,340.000 139.898 L 340.000 123.750 346.250 123.750 C 351.603 123.750,352.500 124.098,352.500 126.176 C 352.500 130.894,354.746 129.915,355.215 124.993 L 355.691 120.000 335.914 120.000 L 316.137 120.000 316.984 124.688 M362.500 121.250 C 362.500 121.938,363.625 122.500,365.000 122.500 C 368.495 122.500,368.883 156.400,365.431 160.214 C 363.437 162.417,363.936 162.500,379.181 162.500 L 395.000 162.500 395.000 157.426 C 395.000 154.362,394.505 152.658,393.750 153.125 C 393.063 153.550,392.500 154.989,392.500 156.324 C 392.500 158.477,391.584 158.750,384.375 158.750 L 376.250 158.750 376.250 149.928 L 376.250 141.106 381.533 141.491 C 385.538 141.782,387.153 142.554,388.207 144.680 C 390.158 148.614,391.250 146.860,391.250 139.792 C 391.250 133.690,389.593 131.640,388.388 136.250 C 387.853 138.297,386.683 138.750,381.932 138.750 L 376.131 138.750 376.503 130.938 C 376.844 123.786,377.127 123.089,379.851 122.704 C 385.593 121.892,391.250 123.680,391.250 126.307 C 391.250 127.650,391.813 128.750,392.500 128.750 C 393.188 128.750,393.750 126.781,393.750 124.375 L 393.750 120.000 378.125 120.000 C 368.542 120.000,362.500 120.483,362.500 121.250 M133.819 123.787 C 143.148 128.780,142.518 155.179,132.984 158.804 C 118.718 164.227,107.447 147.012,114.388 130.400 C 117.485 122.988,126.557 119.900,133.819 123.787 M232.333 137.667 C 235.907 146.265,235.913 146.250,228.646 146.250 C 225.151 146.250,222.479 145.812,222.708 145.278 C 222.938 144.743,224.220 141.368,225.559 137.778 C 228.572 129.701,229.020 129.694,232.333 137.667 " stroke="none" fill="#000000" fill-rule="evenodd"></path></g></svg>