<svg id="svg" version="1.1" xmlns="http://www.w3.org/2000/svg" xmlns:xlink="http://www.w3.org/1999/xlink" width="400" height="53.047294002925405" viewBox="0, 0, 400,53.047294002925405"><g id="svgg"><path id="path0" d="M395.709 0.127 C 393.475 1.023,393.350 4.536,395.511 5.685 C 398.756 7.409,401.644 3.121,398.940 0.594 C 398.423 0.111,396.458 -0.173,395.709 0.127 M142.410 0.944 C 138.304 2.405,136.973 7.027,139.764 10.130 C 143.007 13.738,149.932 12.622,151.420 8.253 C 153.056 3.451,147.661 -0.926,142.410 0.944 M117.739 1.219 C 117.684 1.460,116.911 5.878,116.021 11.036 L 114.403 20.414 113.645 19.456 C 110.183 15.076,102.137 15.129,96.229 19.571 C 87.737 25.955,83.767 40.916,88.624 48.232 C 92.508 54.085,102.604 54.747,108.305 49.523 L 109.549 48.383 109.213 50.228 L 108.878 52.072 116.242 52.072 L 123.607 52.072 123.816 50.853 C 123.931 50.183,125.915 38.765,128.224 25.480 C 130.534 12.194,132.423 1.202,132.423 1.052 C 132.423 0.824,131.242 0.780,125.131 0.780 L 117.838 0.780 117.739 1.219 M27.344 2.934 C 13.788 4.626,3.568 13.999,0.664 27.401 C -2.939 44.035,6.580 54.211,24.488 52.870 C 28.610 52.561,35.155 51.331,35.710 50.760 C 35.904 50.562,38.106 37.846,37.971 37.711 C 37.913 37.653,37.069 37.921,36.095 38.307 C 27.990 41.511,21.439 40.822,17.770 36.377 C 14.695 32.651,16.068 24.096,20.447 19.701 C 25.144 14.988,33.307 13.948,39.834 17.232 C 40.773 17.704,41.541 18.035,41.542 17.968 C 41.542 17.900,42.071 14.823,42.716 11.130 C 43.361 7.437,43.822 4.355,43.739 4.281 C 43.535 4.097,41.257 3.577,39.005 3.200 C 36.821 2.835,29.480 2.667,27.344 2.934 M206.241 2.934 C 191.780 3.919,181.863 11.485,177.574 24.803 C 171.010 45.189,184.895 56.910,209.504 51.758 C 214.577 50.696,218.534 49.253,218.706 48.402 C 219.061 46.647,221.758 30.763,221.708 30.721 C 221.675 30.692,218.309 30.625,214.229 30.572 L 206.809 30.475 205.983 35.461 C 205.529 38.203,205.128 40.476,205.092 40.512 C 204.281 41.323,198.930 40.936,196.674 39.903 C 188.797 36.297,191.735 20.490,201.099 16.101 C 205.151 14.202,213.486 14.456,218.936 16.644 C 219.885 17.025,220.693 17.305,220.732 17.266 C 220.890 17.107,222.948 4.850,222.856 4.611 C 222.667 4.119,217.210 3.216,212.677 2.926 C 209.479 2.721,209.365 2.721,206.241 2.934 M382.838 4.754 C 380.336 5.442,378.854 6.803,377.372 9.771 C 375.646 13.227,375.150 13.924,373.416 15.315 C 368.959 18.893,365.704 19.425,359.709 17.554 C 347.037 13.601,333.740 20.741,330.557 33.207 C 328.034 43.089,331.771 50.251,340.626 52.506 C 345.027 53.627,356.760 52.642,359.400 50.931 C 359.659 50.763,361.170 42.041,360.974 41.845 C 360.921 41.792,360.251 41.960,359.485 42.219 C 355.258 43.649,349.982 44.036,347.479 43.098 C 345.836 42.483,343.843 40.378,343.834 39.249 C 343.833 39.057,346.175 39.005,354.901 39.005 L 365.971 39.005 366.627 34.667 C 366.988 32.280,367.343 29.362,367.416 28.182 C 367.796 22.040,373.187 17.768,382.448 16.271 C 388.710 15.259,391.597 13.147,391.610 9.569 C 391.622 5.839,387.371 3.505,382.838 4.754 M244.466 16.519 C 240.834 16.767,232.239 18.558,231.528 19.216 C 231.440 19.298,229.762 28.948,229.825 29.012 C 229.853 29.040,230.613 28.722,231.515 28.305 C 239.641 24.552,247.679 24.741,247.683 28.686 L 247.684 29.385 241.933 30.008 C 235.521 30.702,233.798 31.091,231.214 32.427 C 222.460 36.950,221.500 50.102,229.742 52.608 C 234.083 53.928,241.807 51.369,244.115 47.847 C 244.596 47.113,244.605 47.382,244.181 49.740 C 243.962 50.953,243.784 51.974,243.784 52.009 C 243.784 52.044,246.789 52.072,250.463 52.072 L 257.143 52.072 258.382 44.905 C 259.064 40.963,259.963 35.851,260.380 33.545 C 262.459 22.058,259.406 17.281,249.537 16.577 C 247.026 16.398,246.357 16.390,244.466 16.519 M293.735 16.582 C 290.480 17.032,287.268 18.635,284.571 21.158 C 283.384 22.268,283.329 22.297,283.448 21.743 C 283.657 20.776,284.154 17.862,284.154 17.601 C 284.154 17.410,282.562 17.357,276.844 17.357 L 269.534 17.357 269.435 17.796 C 269.380 18.038,268.062 25.607,266.505 34.617 C 264.949 43.627,263.625 51.241,263.563 51.536 L 263.450 52.072 270.829 52.072 L 278.207 52.072 279.935 42.077 C 280.885 36.580,281.815 31.679,282.000 31.186 C 283.451 27.339,287.610 25.918,289.079 28.766 C 289.731 30.031,289.580 31.510,287.712 42.126 L 285.979 51.975 293.288 52.026 C 297.308 52.054,300.628 52.045,300.667 52.006 C 300.706 51.968,301.529 47.386,302.498 41.824 C 304.571 29.914,304.818 29.158,307.060 27.872 C 309.544 26.447,312.024 27.790,312.039 30.567 C 312.042 31.223,308.845 49.909,308.434 51.636 L 308.329 52.077 315.787 52.026 L 323.244 51.975 325.263 40.566 C 327.830 26.058,327.910 24.461,326.257 20.938 C 323.370 14.784,312.352 15.002,306.204 21.334 L 305.338 22.225 304.782 21.205 C 302.886 17.731,298.552 15.918,293.735 16.582 M61.921 16.886 C 50.239 18.690,42.825 27.048,42.819 38.420 C 42.814 47.958,48.768 52.935,60.166 52.920 C 72.119 52.903,80.351 47.031,83.069 36.581 C 86.550 23.194,77.238 14.521,61.921 16.886 M158.438 17.045 C 155.356 17.861,153.665 18.872,151.292 21.317 C 150.675 21.952,150.171 22.441,150.172 22.402 C 150.173 22.363,150.348 21.321,150.561 20.088 C 150.774 18.854,150.949 17.735,150.949 17.601 C 150.950 17.410,149.362 17.357,143.653 17.357 L 136.355 17.357 136.244 17.894 C 136.013 19.019,132.033 42.073,132.033 42.289 C 132.033 42.484,146.655 42.662,146.662 42.467 C 146.707 41.152,148.689 31.359,149.087 30.489 C 151.105 26.072,156.410 26.214,156.411 30.685 C 156.411 31.621,153.314 50.599,152.976 51.733 C 152.879 52.058,153.283 52.074,160.243 52.026 L 167.613 51.975 169.616 40.566 C 172.214 25.773,172.292 24.284,170.646 20.934 C 168.806 17.187,163.857 15.611,158.438 17.045 M352.022 25.890 C 353.239 26.499,354.123 29.027,353.703 30.699 L 353.576 31.204 349.305 31.204 L 345.034 31.204 345.235 30.473 C 346.254 26.772,349.459 24.608,352.022 25.890 M66.012 27.521 C 70.163 28.674,69.336 38.822,64.879 41.435 C 61.080 43.661,57.728 41.600,57.728 37.037 C 57.728 30.725,61.587 26.293,66.012 27.521 M110.129 27.511 C 114.228 29.056,112.908 39.421,108.331 41.635 C 104.784 43.351,101.754 41.419,101.779 37.457 C 101.818 31.195,106.165 26.017,110.129 27.511 M246.314 36.811 C 246.249 41.445,240.317 45.430,237.849 42.497 C 235.927 40.212,238.279 37.567,242.841 36.883 C 246.075 36.398,246.320 36.393,246.314 36.811 " stroke="none" fill="#fff" fill-rule="evenodd"></path></g></svg>