<svg id="svg" xmlns="http://www.w3.org/2000/svg" xmlns:xlink="http://www.w3.org/1999/xlink" width="400" height="139.35969868173257" viewBox="0, 0, 400,139.35969868173257" version="1.1"><g id="svgg"><path id="path0" d="M47.081 24.064 C 38.743 26.120,26.752 36.259,22.324 44.998 C 15.200 59.056,18.078 82.447,28.212 92.850 C 48.449 113.625,87.631 84.237,80.196 53.861 C 79.588 51.375,78.744 46.983,78.320 44.101 C 76.287 30.252,61.207 20.580,47.081 24.064 M41.179 33.310 C 38.761 34.621,34.948 37.501,32.704 39.709 C 28.207 44.135,27.964 44.169,30.057 40.083 C 31.640 36.991,34.629 34.520,39.409 32.350 C 44.658 29.966,46.000 30.694,41.179 33.310 M145.288 35.970 C 141.190 40.468,140.566 42.200,140.242 49.979 C 139.955 56.851,140.033 57.376,141.312 57.130 C 143.233 56.760,149.727 48.499,150.330 45.657 C 150.603 44.369,151.252 42.806,151.771 42.185 C 153.011 40.700,152.373 35.405,150.953 35.405 C 150.377 35.405,149.906 35.066,149.906 34.652 C 149.906 33.153,147.132 33.945,145.288 35.970 M57.205 37.058 C 66.535 42.885,71.280 71.544,64.290 79.851 C 60.278 84.619,48.091 87.209,43.691 84.229 C 33.747 77.495,30.824 47.973,39.345 40.325 C 44.596 35.610,52.556 34.154,57.205 37.058 M315.247 48.218 C 313.616 49.889,311.869 51.098,311.366 50.905 C 309.268 50.100,297.606 51.962,292.868 53.859 C 281.242 58.513,268.950 72.058,268.938 80.226 C 268.925 89.897,283.954 103.955,294.307 103.955 C 301.117 103.955,318.865 91.991,322.480 84.964 C 325.194 79.686,324.144 79.263,319.180 83.633 C 310.952 90.876,298.418 93.354,290.852 89.236 C 288.736 88.085,287.006 86.894,287.006 86.591 C 287.006 86.287,285.540 84.392,283.748 82.379 C 277.697 75.581,279.822 70.967,293.022 62.242 C 302.138 56.217,310.065 59.964,308.837 69.717 C 308.245 74.417,308.329 75.106,309.650 76.444 C 311.784 78.606,319.002 71.814,317.006 69.524 C 315.931 68.291,315.990 67.712,317.680 62.900 C 319.658 57.266,320.509 45.960,318.994 45.445 C 318.565 45.299,316.879 46.547,315.247 48.218 M166.100 52.305 C 162.370 56.260,160.920 71.756,162.642 89.265 C 163.972 102.786,164.549 103.854,168.328 99.777 L 170.105 97.859 170.987 100.530 C 172.033 103.701,173.114 103.859,176.173 101.285 C 179.386 98.581,179.580 97.245,177.664 91.007 C 176.369 86.791,175.963 83.578,175.933 77.312 L 175.895 69.124 179.661 67.007 C 185.953 63.472,188.637 63.352,191.583 66.477 C 196.856 72.067,198.730 84.223,195.705 93.209 C 193.842 98.741,193.979 100.781,196.157 99.945 C 196.999 99.622,197.363 99.909,197.363 100.895 C 197.363 103.085,199.567 102.078,203.557 98.063 L 207.082 94.517 206.419 80.215 C 205.330 56.730,203.660 52.848,195.030 53.749 C 189.884 54.287,184.086 56.804,178.939 60.733 L 175.389 63.445 175.917 59.218 C 176.506 54.498,175.697 53.851,172.129 56.189 L 170.300 57.388 170.754 53.553 C 171.320 48.770,169.814 48.366,166.100 52.305 M233.857 56.934 C 224.017 60.317,213.123 75.094,212.913 85.345 C 212.649 98.247,220.534 104.846,237.399 105.838 C 250.509 106.609,260.409 100.375,264.280 88.912 C 270.131 71.589,250.685 51.149,233.857 56.934 M111.111 57.909 C 109.454 58.667,106.625 60.524,104.825 62.035 C 100.670 65.524,100.698 65.534,101.339 60.829 L 101.877 56.874 100.152 58.380 C 98.652 59.690,98.489 59.714,98.907 58.569 C 99.502 56.938,98.448 56.846,97.146 58.416 C 96.373 59.346,96.055 59.384,95.566 58.604 C 94.578 57.029,91.016 59.454,89.266 62.893 C 88.437 64.520,87.113 66.403,86.323 67.077 C 84.927 68.269,84.922 68.534,86.167 76.900 C 86.870 81.630,87.938 90.009,88.539 95.521 C 89.972 108.657,91.078 110.462,94.881 105.879 C 96.100 104.410,97.175 104.371,97.175 105.796 C 97.175 108.661,100.622 111.117,102.717 109.745 C 106.834 107.047,107.265 105.461,105.611 99.087 C 104.798 95.953,104.396 93.225,104.718 93.026 C 105.040 92.827,104.505 90.147,103.528 87.071 C 102.551 83.995,101.654 79.700,101.535 77.527 L 101.318 73.576 104.973 71.675 C 110.314 68.897,117.411 68.954,120.380 71.798 C 121.542 72.912,122.859 73.823,123.306 73.823 C 123.752 73.823,124.296 74.502,124.513 75.333 C 125.090 77.538,126.733 76.520,128.193 73.054 C 128.955 71.244,129.958 70.056,130.725 70.056 C 132.139 70.056,131.800 66.197,130.063 62.524 C 127.706 57.541,117.401 55.031,111.111 57.909 M143.115 60.147 L 138.983 63.857 139.148 79.951 C 139.314 96.242,140.326 105.597,141.896 105.355 C 142.365 105.283,143.312 105.471,144.000 105.774 C 145.592 106.474,148.887 104.765,151.752 101.751 L 153.975 99.413 152.953 93.963 C 152.391 90.965,151.780 81.630,151.594 73.218 C 151.292 59.523,151.127 57.950,150.016 58.179 C 149.334 58.320,148.432 57.986,148.011 57.436 C 147.411 56.653,146.357 57.236,143.115 60.147 M345.867 57.607 C 341.399 59.632,332.478 69.303,329.772 75.056 C 321.851 91.889,329.934 104.195,349.875 105.661 C 365.099 106.781,374.177 101.210,378.556 88.062 L 380.571 82.010 378.846 76.645 C 376.433 69.139,371.995 62.912,366.855 59.817 C 361.731 56.732,350.425 55.542,345.867 57.607 M241.161 69.581 C 256.802 76.014,260.936 88.820,248.723 93.004 C 230.289 99.321,216.992 88.606,224.530 73.511 C 227.635 67.294,232.695 66.098,241.161 69.581 M357.761 70.842 C 370.390 77.573,373.981 87.498,365.376 91.888 C 351.443 98.996,334.397 92.247,336.295 80.376 C 338.243 68.195,346.181 64.669,357.761 70.842 M71.290 79.316 C 67.512 87.014,61.542 91.272,53.087 92.298 C 47.601 92.964,47.838 92.595,54.512 90.084 C 60.366 87.881,68.769 81.046,71.221 76.493 C 73.432 72.387,73.492 74.829,71.290 79.316 " stroke="none" fill="#000000" fill-rule="evenodd"></path></g></svg>