<svg id="svg" xmlns="http://www.w3.org/2000/svg" xmlns:xlink="http://www.w3.org/1999/xlink" width="400" height="74.61139896373058" viewBox="0, 0, 400,74.61139896373058"><g id="svgg"><path id="path0" d="M3.109 8.823 C 3.109 9.116,4.624 10.716,6.477 12.378 L 9.845 15.400 6.477 18.889 C 2.699 22.804,1.907 28.893,4.696 32.581 C 5.702 33.911,6.218 37.085,6.218 41.943 L 6.218 49.294 11.691 54.699 L 17.164 60.104 28.212 60.104 L 39.261 60.104 44.666 54.388 L 50.071 48.673 49.844 41.652 C 49.651 35.705,49.942 34.336,51.751 32.699 C 55.213 29.566,54.668 23.185,50.579 18.966 L 47.271 15.554 50.244 12.451 C 54.304 8.214,52.625 7.097,48.381 11.211 C 45.265 14.231,44.412 14.508,38.222 14.508 C 31.630 14.508,31.425 14.590,29.886 17.841 L 28.307 21.174 26.839 18.100 C 25.482 15.258,24.864 14.987,18.641 14.508 C 13.392 14.104,11.092 13.362,8.189 11.140 C 4.592 8.385,3.109 7.709,3.109 8.823 M25.985 20.878 L 28.177 25.176 30.436 21.137 C 32.469 17.503,41.451 14.163,41.451 17.042 C 41.451 17.667,35.054 23.601,30.618 27.091 L 27.893 29.234 21.977 23.688 C 14.538 16.713,14.493 16.580,19.582 16.580 C 23.475 16.580,23.957 16.903,25.985 20.878 M14.652 19.655 C 16.704 21.364,16.806 21.698,15.285 21.727 C 13.832 21.755,13.472 22.688,13.472 26.425 L 13.472 31.088 18.205 31.088 C 22.466 31.088,22.872 30.882,22.280 29.016 C 21.452 26.408,22.968 26.340,25.267 28.881 C 31.271 35.516,14.812 39.927,8.088 33.485 C 1.532 27.204,7.818 13.961,14.652 19.655 M48.907 20.401 C 55.865 27.067,50.364 36.269,39.422 36.269 C 31.044 36.269,27.794 32.885,32.068 28.612 L 34.197 26.482 34.197 28.785 C 34.197 30.824,34.732 31.088,38.860 31.088 L 43.523 31.088 43.523 26.425 C 43.523 22.777,43.150 21.762,41.808 21.762 C 40.266 21.762,40.282 21.553,41.969 19.689 C 44.432 16.968,45.430 17.070,48.907 20.401 M137.254 18.597 C 136.205 19.641,136.837 47.039,137.935 48.129 C 139.429 49.613,142.019 47.387,141.325 45.214 C 138.856 37.482,142.201 29.492,147.585 30.262 C 149.502 30.536,149.798 31.455,150.259 38.553 C 150.759 46.254,152.404 50.237,154.216 48.135 C 155.456 46.696,154.106 30.372,152.625 28.893 C 150.749 27.020,145.396 27.370,143.019 29.522 C 140.954 31.390,140.933 31.355,140.933 26.152 C 140.933 18.616,139.725 16.136,137.254 18.597 M67.671 19.474 C 66.853 19.994,66.759 20.782,67.396 21.789 C 67.927 22.629,68.369 29.028,68.378 36.010 C 68.394 49.023,68.686 49.834,72.489 47.459 C 74.063 46.476,75.035 46.509,77.103 47.615 C 79.288 48.785,79.998 48.788,81.388 47.634 C 83.740 45.683,78.853 43.110,74.578 44.049 L 71.568 44.710 71.276 32.025 C 70.994 19.735,70.418 17.730,67.671 19.474 M238.711 19.931 C 238.265 20.652,238.034 22.518,238.198 24.077 C 238.411 26.110,237.668 27.653,235.569 29.536 L 232.642 32.162 235.492 31.512 L 238.342 30.863 238.358 38.489 C 238.379 48.424,239.179 49.725,243.416 46.708 C 247.309 43.937,247.470 43.274,244.041 44.134 C 241.477 44.778,241.451 44.715,241.451 38.057 C 241.451 32.201,241.719 31.260,243.523 30.788 C 244.663 30.490,245.596 29.736,245.596 29.113 C 245.596 28.489,244.663 27.979,243.523 27.979 C 241.801 27.979,241.451 27.288,241.451 23.895 C 241.451 19.633,240.102 17.680,238.711 19.931 M315.257 19.873 C 314.452 20.677,314.409 21.645,315.118 22.970 C 316.789 26.093,314.818 28.191,309.993 28.425 C 299.057 28.955,294.181 44.547,304.946 44.565 C 314.131 44.581,318.538 48.154,314.434 52.258 C 311.118 55.573,301.554 53.157,301.554 49.003 C 301.554 47.543,301.316 47.563,299.540 49.170 C 296.121 52.264,300.896 56.995,307.439 56.995 C 315.981 56.995,323.797 43.601,315.794 42.677 C 312.373 42.282,312.358 42.172,315.203 38.324 C 317.130 35.718,317.277 34.895,316.226 32.588 C 315.183 30.298,315.311 29.498,317.085 27.243 C 320.317 23.134,318.664 16.466,315.257 19.873 M223.834 23.366 C 223.834 26.065,223.077 27.723,220.984 29.602 L 218.135 32.162 220.984 31.512 L 223.834 30.863 223.834 38.621 C 223.834 48.256,225.270 50.098,229.688 46.136 L 232.642 43.486 229.793 44.135 L 226.943 44.784 226.943 37.936 C 226.943 32.810,227.302 31.088,228.371 31.088 C 229.156 31.088,230.379 30.389,231.088 29.534 C 232.179 28.219,231.959 27.979,229.661 27.979 C 227.181 27.979,226.943 27.616,226.943 23.834 C 226.943 20.841,226.511 19.689,225.389 19.689 C 224.299 19.689,223.834 20.788,223.834 23.366 M20.538 26.684 C 20.808 28.583,20.375 29.016,18.207 29.016 C 16.038 29.016,15.544 28.521,15.544 26.353 C 15.544 22.809,20.030 23.107,20.538 26.684 M41.451 26.425 C 41.451 28.497,40.933 29.016,38.860 29.016 C 36.351 29.016,35.197 26.288,36.960 24.525 C 38.723 22.762,41.451 23.916,41.451 26.425 M162.321 30.366 C 156.172 36.166,156.366 43.163,162.804 47.746 C 171.053 53.620,180.030 37.854,172.642 30.466 C 168.260 26.084,166.876 26.070,162.321 30.366 M347.915 29.006 C 345.624 30.808,345.214 30.864,344.670 29.448 C 342.608 24.074,340.487 28.655,340.789 37.832 C 341.124 48.000,341.652 49.274,345.078 48.187 C 346.738 47.660,347.048 47.152,346.218 46.322 C 344.249 44.353,344.800 33.733,346.973 31.767 C 352.049 27.173,354.737 29.892,355.440 40.333 C 355.966 48.128,356.782 49.554,359.585 47.573 C 360.755 46.746,360.819 46.344,359.845 45.949 C 358.984 45.599,358.549 43.018,358.549 38.256 C 358.549 27.888,354.175 24.083,347.915 29.006 M87.705 30.127 C 84.689 32.499,83.907 35.864,86.613 34.826 C 87.515 34.480,88.447 34.197,88.686 34.197 C 88.924 34.197,89.119 33.514,89.119 32.679 C 89.119 28.645,96.619 28.991,97.687 33.074 C 98.191 35.003,97.792 35.237,93.944 35.266 C 84.655 35.337,80.672 44.904,88.456 48.450 C 90.782 49.510,94.643 48.593,95.810 46.705 C 96.815 45.078,98.446 45.353,98.446 47.150 C 98.446 48.005,99.088 48.705,99.873 48.705 C 100.658 48.705,101.881 48.005,102.591 47.150 C 103.482 46.076,103.521 45.596,102.718 45.596 C 101.981 45.596,101.554 43.210,101.554 39.091 C 101.554 28.420,95.147 24.273,87.705 30.127 M120.251 31.964 C 115.155 36.811,114.720 40.733,118.745 45.516 C 122.989 50.560,128.595 49.786,132.094 43.675 C 132.633 42.735,132.004 42.858,130.187 44.048 C 126.592 46.404,122.748 45.361,120.744 41.487 C 116.931 34.113,122.979 27.476,128.304 33.192 C 130.055 35.071,130.407 35.124,131.596 33.691 C 136.244 28.091,125.967 26.527,120.251 31.964 M178.836 28.887 C 178.489 29.449,178.678 30.202,179.258 30.560 C 179.837 30.917,180.311 34.587,180.311 38.714 C 180.311 48.411,184.816 51.940,191.218 47.259 C 192.915 46.018,193.350 46.026,194.293 47.316 C 197.571 51.798,200.027 37.252,197.353 29.198 C 195.798 24.515,193.443 28.809,193.674 35.905 C 193.891 42.590,193.683 43.475,191.545 44.973 C 185.950 48.892,184.132 46.947,183.420 36.279 C 182.918 28.767,180.911 25.530,178.836 28.887 M207.206 29.308 C 201.558 33.758,200.246 42.483,204.609 46.581 C 208.159 49.916,211.993 49.625,215.893 45.725 C 217.674 43.944,218.614 42.487,217.983 42.487 C 217.351 42.487,216.254 43.187,215.544 44.041 C 213.924 45.993,208.933 46.065,207.352 44.159 C 206.396 43.008,207.194 41.980,211.370 38.980 C 216.709 35.144,218.024 31.910,215.337 29.223 C 213.744 27.630,209.276 27.676,207.206 29.308 M253.230 29.816 C 245.612 35.986,247.896 48.705,256.622 48.705 C 259.598 48.705,265.349 44.278,264.055 42.984 C 263.754 42.683,262.918 43.148,262.197 44.016 C 260.560 45.989,255.574 46.076,253.984 44.159 C 253.029 43.008,253.826 41.980,258.002 38.980 C 263.341 35.144,264.656 31.910,261.969 29.223 C 260.181 27.435,255.802 27.732,253.230 29.816 M280.208 30.579 C 277.257 33.530,277.703 35.870,280.892 34.163 C 281.997 33.572,282.902 32.405,282.902 31.570 C 282.902 29.037,287.876 29.254,289.896 31.876 C 292.018 34.629,291.429 35.233,286.621 35.233 C 279.700 35.233,275.109 40.814,278.291 45.357 C 281.233 49.557,283.809 50.226,287.250 47.682 C 290.201 45.500,290.366 45.487,291.726 47.320 C 293.071 49.132,293.225 49.137,294.977 47.409 C 296.096 46.306,296.324 45.596,295.559 45.596 C 294.694 45.596,294.301 43.375,294.301 38.503 C 294.301 28.029,286.912 23.874,280.208 30.579 M325.743 29.506 C 317.539 35.252,320.021 48.705,329.285 48.705 C 332.146 48.705,337.850 44.241,336.594 42.984 C 336.293 42.683,335.457 43.148,334.736 44.016 C 333.091 45.998,328.110 46.072,326.506 44.139 C 325.530 42.963,326.210 42.026,330.035 39.279 C 335.072 35.662,336.801 32.047,334.704 29.520 C 333.067 27.548,328.548 27.541,325.743 29.506 M366.842 31.727 C 363.411 34.827,362.694 36.143,362.694 39.348 C 362.694 47.678,370.978 51.551,376.490 45.798 C 379.970 42.166,380.178 40.241,376.741 43.469 C 371.985 47.937,365.292 43.350,365.991 36.102 C 366.423 31.622,370.815 29.676,373.997 32.555 C 376.150 34.503,378.238 34.024,378.238 31.582 C 378.238 29.970,375.128 27.979,372.610 27.979 C 371.719 27.979,369.124 29.666,366.842 31.727 M386.753 29.597 C 376.954 36.460,381.964 52.573,392.518 48.135 C 395.550 46.860,399.050 42.487,397.039 42.487 C 396.509 42.487,395.808 43.187,395.480 44.041 C 394.715 46.036,388.249 46.114,386.618 44.149 C 385.656 42.990,386.142 42.255,389.065 40.448 C 392.643 38.237,396.891 33.683,396.891 32.059 C 396.891 28.462,390.566 26.926,386.753 29.597 M167.933 31.119 C 172.344 33.480,174.244 40.494,171.342 43.701 C 166.146 49.442,157.667 38.877,162.235 32.355 C 164.037 29.781,165.031 29.566,167.933 31.119 M212.399 32.056 C 214.064 35.168,213.744 35.932,209.739 38.407 C 205.475 41.042,203.638 39.879,204.736 35.239 C 205.985 29.962,210.316 28.164,212.399 32.056 M259.027 32.049 C 260.470 34.746,259.615 36.535,255.808 38.784 C 252.439 40.774,250.830 39.958,250.793 36.241 C 250.744 31.326,256.949 28.167,259.027 32.049 M311.340 32.355 C 315.055 37.658,311.119 44.332,305.996 41.416 C 302.058 39.175,301.225 35.931,303.760 32.709 C 306.330 29.441,309.205 29.307,311.340 32.355 M331.503 32.383 C 332.651 35.472,332.136 36.546,328.463 38.716 C 324.932 40.802,323.316 40.249,323.316 36.957 C 323.316 31.239,329.743 27.649,331.503 32.383 M391.503 31.295 C 393.577 33.370,392.908 36.013,389.736 38.271 C 385.545 41.256,384.456 40.965,384.456 36.862 C 384.456 31.499,388.506 28.299,391.503 31.295 M29.338 39.616 L 28.307 41.926 27.070 39.616 C 26.113 37.826,26.113 36.785,27.070 34.995 L 28.307 32.685 29.338 34.995 C 30.021 36.528,30.021 38.084,29.338 39.616 M9.041 45.836 C 8.811 47.699,8.617 46.425,8.611 43.005 C 8.605 39.585,8.794 38.062,9.031 39.619 C 9.267 41.176,9.272 43.974,9.041 45.836 M48.705 43.005 C 48.705 46.140,48.238 48.705,47.668 48.705 C 47.098 48.705,46.632 46.140,46.632 43.005 C 46.632 39.870,47.098 37.306,47.668 37.306 C 48.238 37.306,48.705 39.870,48.705 43.005 M95.405 38.378 C 98.290 39.923,98.017 44.327,94.950 45.725 C 90.633 47.692,85.138 42.269,87.528 38.401 C 88.394 37.001,92.807 36.988,95.405 38.378 M288.552 38.508 C 291.893 40.031,291.938 42.987,288.652 45.140 C 285.499 47.206,282.136 46.288,280.613 42.946 C 278.501 38.310,282.819 35.896,288.552 38.508 M26.043 41.967 C 28.447 46.042,29.218 45.967,31.079 41.473 C 32.314 38.491,32.666 38.342,38.468 38.342 L 44.560 38.342 44.560 45.280 C 44.560 56.173,42.235 58.031,28.612 58.031 C 14.809 58.031,11.399 55.425,11.399 44.874 L 11.399 38.342 17.652 38.342 C 23.698 38.342,23.974 38.461,26.043 41.967 M10.363 66.321 C 10.363 66.913,13.472 67.358,17.617 67.358 C 21.762 67.358,24.870 66.913,24.870 66.321 C 24.870 65.729,21.762 65.285,17.617 65.285 C 13.472 65.285,10.363 65.729,10.363 66.321 M32.124 66.321 C 32.124 66.906,35.060 67.358,38.860 67.358 C 42.660 67.358,45.596 66.906,45.596 66.321 C 45.596 65.737,42.660 65.285,38.860 65.285 C 35.060 65.285,32.124 65.737,32.124 66.321 " stroke="none" fill="#000000" fill-rule="evenodd"></path></g></svg>