<svg id="svg" version="1.1" xmlns="http://www.w3.org/2000/svg" width="400" height="400"><g id="svgg"><path id="path0" d="m275 104.037-14.5 12.909-24.095.027c-27.815.031-24.885-1.076-31.34 11.845-4.964 9.935-5.396 9.913-10.565-.538-6.112-12.356-3.176-11.28-30.769-11.28h-24.025l-4.384-3.593c-2.412-1.976-8.854-7.601-14.317-12.5-10.337-9.27-12.235-10.214-13.98-6.955-.917 1.714.357 3.202 10.426 12.176 14.505 12.928 14.551 10.537-.508 26.205L104 145.799l.009 13.85.008 13.851 6.445 7 6.445 7 .117 26c.064 14.3.422 26.758.796 27.685 1.07 2.654 21.344 23.921 32.246 33.826l9.893 8.989h80.558l21.242-21.259L283 241.483v-53.364l7-7.55 7-7.549v-27.78l-13.079-12.59c-15.599-15.015-15.51-13.407-1.414-25.57 11.201-9.663 13.07-12.454 9.897-14.774-2.469-1.805-1.361-2.552-17.404 11.731M140.168 126.75c6.83 5.455 16.832 14.623 16.832 15.428 0 .452-2.363.829-5.25.837-8.331.025-8.251-.133-8.245 16.199.007 19.41-1.478 17.786 16.264 17.786 17.444 0 17.231.114 17.231-9.2 0-8.635.468-8.611 10.402.526l7.901 7.269-4.785 9.264C183.666 198.127 186.596 197 158.944 197h-23.912l-2.869-2.75c-1.577-1.512-6.984-7.295-12.015-12.85L111 171.3V147.685l11.697-11.842c12.957-13.119 12.638-12.953 17.471-9.093m51.007 11.125c9.246 18.525 7.945 18.451 16.863.962C216.248 122.736 214.08 124 233.49 124c17.764 0 19.338.533 13.756 4.66-1.515 1.12-12.561 10.655-24.547 21.188C210.713 160.382 200.494 169 199.99 169c-.504 0-10.216-8.125-21.582-18.056-11.366-9.931-22.407-19.457-24.537-21.168-6.827-5.486-5.936-5.856 13.379-5.55l17.25.274 6.675 13.375m86.06-1.141L289 148.469v22.578l-12.141 12.477L264.717 196h-48.442l-5.137-9.722c-6.374-12.06-6.543-10.678 2.284-18.609 9.316-8.372 9.43-8.359 9.786 1.081l.292 7.75h33l.287-14.5c.387-19.536.579-19-6.806-19-8.026 0-7.723-.93 3.329-10.244 11.491-9.682 9.977-9.934 23.925 3.978m-109.458 14.823c1.957 1.37 2.223 2.443 2.223 8.965 0 9.042-.795 9.696-11.266 9.271l-7.234-.293-.293-8.416c-.161-4.629-.063-9.017.218-9.75.759-1.976 13.461-1.802 16.352.223m80.023-.357c1.786 1.786 1.596 16.226-.233 17.745-1.757 1.458-15.684.35-16.802-1.336-1.273-1.922-.874-14.273.498-15.412 1.182-.982 5.139-1.635 12.287-2.029 1.677-.092 3.59.372 4.25 1.032m-42.894 39.412c3.876 8.284 3.861 8.915-.419 17.413-4.371 8.681-5.196 8.653-9.254-.309-4.005-8.845-4.025-8.102.449-16.667 4.539-8.689 5.344-8.727 9.224-.437m69.924 30.934c-.326 16.94-1.025 20.454-4.069 20.454-1.611 0-.485-38.922 1.215-42l1.381-2.5.901 3.447c.496 1.896.753 11.165.572 20.599m-146.865-20.612c2.002 3.742 1.346 41.272-.715 40.879-1.452-.276-1.86-1.862-2.394-9.323-1.869-26.079-.639-38.559 3.109-31.556m56.884 4.816c1.138.963 4.805 7.294 8.147 14.071 7.281 14.759 6.736 14.81 14.946-1.385L214.5 205.5l6-.821c6.069-.831 39.004-.104 40.623.897.482.298.877 11.038.877 23.866v23.325l-12.049 11.616L237.902 276l-38.201-.002-38.201-.002-12.116-11.454-12.117-11.454-.702-7.129c-.387-3.921-.383-14.966.009-24.544l.712-17.415h22.746c20.208 0 22.977.195 24.817 1.75m-50.253 98.556c-1.098.803-1.653 2.248-1.441 3.75l.345 2.444 24.5.282c13.475.154 25.512.033 26.75-.269 3.3-.808 3.086-5.245-.315-6.538-4.079-1.55-47.661-1.261-49.839.331m79.621-.123c-5.886 5.886-1.208 6.983 28.175 6.609 24.66-.315 26.956-.845 23.995-5.542-1.412-2.24-50.004-3.233-52.17-1.067" stroke="none" fill="#000" fill-rule="evenodd"/></g></svg>