<svg id="svg" xmlns="http://www.w3.org/2000/svg" width="400" height="74.611"><g id="svgg"><path id="path0" d="M3.109 8.823c0 .293 1.515 1.893 3.368 3.555L9.845 15.4l-3.368 3.489c-3.778 3.915-4.57 10.004-1.781 13.692 1.006 1.33 1.522 4.504 1.522 9.362v7.351l5.473 5.405 5.473 5.405h22.097l5.405-5.716 5.405-5.715-.227-7.021c-.193-5.947.098-7.316 1.907-8.953 3.462-3.133 2.917-9.514-1.172-13.733l-3.308-3.412 2.973-3.103c4.06-4.237 2.381-5.354-1.863-1.24-3.116 3.02-3.969 3.297-10.159 3.297-6.592 0-6.797.082-8.336 3.333l-1.579 3.333-1.468-3.074c-1.357-2.842-1.975-3.113-8.198-3.592-5.249-.404-7.549-1.146-10.452-3.368-3.597-2.755-5.08-3.431-5.08-2.317m22.876 12.055 2.192 4.298 2.259-4.039c2.033-3.634 11.015-6.974 11.015-4.095 0 .625-6.397 6.559-10.833 10.049l-2.725 2.143-5.916-5.546c-7.439-6.975-7.484-7.108-2.395-7.108 3.893 0 4.375.323 6.403 4.298m-11.333-1.223c2.052 1.709 2.154 2.043.633 2.072-1.453.028-1.813.961-1.813 4.698v4.663h4.733c4.261 0 4.667-.206 4.075-2.072-.828-2.608.688-2.676 2.987-.135 6.004 6.635-10.455 11.046-17.179 4.604-6.556-6.281-.27-19.524 6.564-13.83m34.255.746c6.958 6.666 1.457 15.868-9.485 15.868-8.378 0-11.628-3.384-7.354-7.657l2.129-2.13v2.303c0 2.039.535 2.303 4.663 2.303h4.663v-4.663c0-3.648-.373-4.663-1.715-4.663-1.542 0-1.526-.209.161-2.073 2.463-2.721 3.461-2.619 6.938.712m88.347-1.804c-1.049 1.044-.417 28.442.681 29.532 1.494 1.484 4.084-.742 3.39-2.915-2.469-7.732.876-15.722 6.26-14.952 1.917.274 2.213 1.193 2.674 8.291.5 7.701 2.145 11.684 3.957 9.582 1.24-1.439-.11-17.763-1.591-19.242-1.876-1.873-7.229-1.523-9.606.629-2.065 1.868-2.086 1.833-2.086-3.37 0-7.536-1.208-10.016-3.679-7.555m-69.583.877c-.818.52-.912 1.308-.275 2.315.531.84.973 7.239.982 14.221.016 13.013.308 13.824 4.111 11.449 1.574-.983 2.546-.95 4.614.156 2.185 1.17 2.895 1.173 4.285.019 2.352-1.951-2.535-4.524-6.81-3.585l-3.01.661-.292-12.685c-.282-12.29-.858-14.295-3.605-12.551m171.04.457c-.446.721-.677 2.587-.513 4.146.213 2.033-.53 3.576-2.629 5.459l-2.927 2.626 2.85-.65 2.85-.649.016 7.626c.021 9.935.821 11.236 5.058 8.219 3.893-2.771 4.054-3.434.625-2.574-2.564.644-2.59.581-2.59-6.077 0-5.856.268-6.797 2.072-7.269 1.14-.298 2.073-1.052 2.073-1.675 0-.624-.933-1.134-2.073-1.134-1.722 0-2.072-.691-2.072-4.084 0-4.262-1.349-6.215-2.74-3.964m76.546-.058c-.805.804-.848 1.772-.139 3.097 1.671 3.123-.3 5.221-5.125 5.455-10.936.53-15.812 16.122-5.047 16.14 9.185.016 13.592 3.589 9.488 7.693-3.316 3.315-12.88.899-12.88-3.255 0-1.46-.238-1.44-2.014.167-3.419 3.094 1.356 7.825 7.899 7.825 8.542 0 16.358-13.394 8.355-14.318-3.421-.395-3.436-.505-.591-4.353 1.927-2.606 2.074-3.429 1.023-5.736-1.043-2.29-.915-3.09.859-5.345 3.232-4.109 1.579-10.777-1.828-7.37m-91.423 3.493c0 2.699-.757 4.357-2.85 6.236l-2.849 2.56 2.849-.65 2.85-.649v7.758c0 9.635 1.436 11.477 5.854 7.515l2.954-2.65-2.849.649-2.85.649v-6.848c0-5.126.359-6.848 1.428-6.848.785 0 2.008-.699 2.717-1.554 1.091-1.315.871-1.555-1.427-1.555-2.48 0-2.718-.363-2.718-4.145 0-2.993-.432-4.145-1.554-4.145-1.09 0-1.555 1.099-1.555 3.677M20.538 26.684c.27 1.899-.163 2.332-2.331 2.332-2.169 0-2.663-.495-2.663-2.663 0-3.544 4.486-3.246 4.994.331m20.913-.259c0 2.072-.518 2.591-2.591 2.591-2.509 0-3.663-2.728-1.9-4.491 1.763-1.763 4.491-.609 4.491 1.9m120.87 3.941c-6.149 5.8-5.955 12.797.483 17.38 8.249 5.874 17.226-9.892 9.838-17.28-4.382-4.382-5.766-4.396-10.321-.1m185.594-1.36c-2.291 1.802-2.701 1.858-3.245.442-2.062-5.374-4.183-.793-3.881 8.384.335 10.168.863 11.442 4.289 10.355 1.66-.527 1.97-1.035 1.14-1.865-1.969-1.969-1.418-12.589.755-14.555 5.076-4.594 7.764-1.875 8.467 8.566.526 7.795 1.342 9.221 4.145 7.24 1.17-.827 1.234-1.229.26-1.624-.861-.35-1.296-2.931-1.296-7.693 0-10.368-4.374-14.173-10.634-9.25m-260.21 1.121c-3.016 2.372-3.798 5.737-1.092 4.699.902-.346 1.834-.629 2.073-.629.238 0 .433-.683.433-1.518 0-4.034 7.5-3.688 8.568.395.504 1.929.105 2.163-3.743 2.192-9.289.071-13.272 9.638-5.488 13.184 2.326 1.06 6.187.143 7.354-1.745 1.005-1.627 2.636-1.352 2.636.445 0 .855.642 1.555 1.427 1.555s2.008-.7 2.718-1.555c.891-1.074.93-1.554.127-1.554-.737 0-1.164-2.386-1.164-6.505 0-10.671-6.407-14.818-13.849-8.964m32.546 1.837c-5.096 4.847-5.531 8.769-1.506 13.552 4.244 5.044 9.85 4.27 13.349-1.841.539-.94-.09-.817-1.907.373-3.595 2.356-7.439 1.313-9.443-2.561-3.813-7.374 2.235-14.011 7.56-8.295 1.751 1.879 2.103 1.932 3.292.499 4.648-5.6-5.629-7.164-11.345-1.727m58.585-3.077c-.347.562-.158 1.315.422 1.673.579.357 1.053 4.027 1.053 8.154 0 9.697 4.505 13.226 10.907 8.545 1.697-1.241 2.132-1.233 3.075.057 3.278 4.482 5.734-10.064 3.06-18.118-1.555-4.683-3.91-.389-3.679 6.707.217 6.685.009 7.57-2.129 9.068-5.595 3.919-7.413 1.974-8.125-8.694-.502-7.512-2.509-10.749-4.584-7.392m28.37.421c-5.648 4.45-6.96 13.175-2.597 17.273 3.55 3.335 7.384 3.044 11.284-.856 1.781-1.781 2.721-3.238 2.09-3.238-.632 0-1.729.7-2.439 1.554-1.62 1.952-6.611 2.024-8.192.118-.956-1.151-.158-2.179 4.018-5.179 5.339-3.836 6.654-7.07 3.967-9.757-1.593-1.593-6.061-1.547-8.131.085m46.024.508c-7.618 6.17-5.334 18.889 3.392 18.889 2.976 0 8.727-4.427 7.433-5.721-.301-.301-1.137.164-1.858 1.032-1.637 1.973-6.623 2.06-8.213.143-.955-1.151-.158-2.179 4.018-5.179 5.339-3.836 6.654-7.07 3.967-9.757-1.788-1.788-6.167-1.491-8.739.593m26.978.763c-2.951 2.951-2.505 5.291.684 3.584 1.105-.591 2.01-1.758 2.01-2.593 0-2.533 4.974-2.316 6.994.306 2.122 2.753 1.533 3.357-3.275 3.357-6.921 0-11.512 5.581-8.33 10.124 2.942 4.2 5.518 4.869 8.959 2.325 2.951-2.182 3.116-2.195 4.476-.362 1.345 1.812 1.499 1.817 3.251.089 1.119-1.103 1.347-1.813.582-1.813-.865 0-1.258-2.221-1.258-7.093 0-10.474-7.389-14.629-14.093-7.924m45.535-1.073c-8.204 5.746-5.722 19.199 3.542 19.199 2.861 0 8.565-4.464 7.309-5.721-.301-.301-1.137.164-1.858 1.032-1.645 1.982-6.626 2.056-8.23.123-.976-1.176-.296-2.113 3.529-4.86 5.037-3.617 6.766-7.232 4.669-9.759-1.637-1.972-6.156-1.979-8.961-.014m41.099 2.221c-3.431 3.1-4.148 4.416-4.148 7.621 0 8.33 8.284 12.203 13.796 6.45 3.48-3.632 3.688-5.557.251-2.329-4.756 4.468-11.449-.119-10.75-7.367.432-4.48 4.824-6.426 8.006-3.547 2.153 1.948 4.241 1.469 4.241-.973 0-1.612-3.11-3.603-5.628-3.603-.891 0-3.486 1.687-5.768 3.748m19.911-2.13c-9.799 6.863-4.789 22.976 5.765 18.538 3.032-1.275 6.532-5.648 4.521-5.648-.53 0-1.231.7-1.559 1.554-.765 1.995-7.231 2.073-8.862.108-.962-1.159-.476-1.894 2.447-3.701 3.578-2.211 7.826-6.765 7.826-8.389 0-3.597-6.325-5.133-10.138-2.462m-218.82 1.522c4.411 2.361 6.311 9.375 3.409 12.582-5.196 5.741-13.675-4.824-9.107-11.346 1.802-2.574 2.796-2.789 5.698-1.236m44.466.937c1.665 3.112 1.345 3.876-2.66 6.351-4.264 2.635-6.101 1.472-5.003-3.168 1.249-5.277 5.58-7.075 7.663-3.183m46.628-.007c1.443 2.697.588 4.486-3.219 6.735-3.369 1.99-4.978 1.174-5.015-2.543-.049-4.915 6.156-8.074 8.234-4.192m52.313.306c3.715 5.303-.221 11.977-5.344 9.061-3.938-2.241-4.771-5.485-2.236-8.707 2.57-3.268 5.445-3.402 7.58-.354m20.163.028c1.148 3.089.633 4.163-3.04 6.333-3.531 2.086-5.147 1.533-5.147-1.759 0-5.718 6.427-9.308 8.187-4.574m60-1.088c2.074 2.075 1.405 4.718-1.767 6.976-4.191 2.985-5.28 2.694-5.28-1.409 0-5.363 4.05-8.563 7.047-5.567M29.338 39.616l-1.031 2.31-1.237-2.31c-.957-1.79-.957-2.831 0-4.621l1.237-2.31 1.031 2.31c.683 1.533.683 3.089 0 4.621m-20.297 6.22c-.23 1.863-.424.589-.43-2.831-.006-3.42.183-4.943.42-3.386.236 1.557.241 4.355.01 6.217m39.664-2.831c0 3.135-.467 5.7-1.037 5.7-.57 0-1.036-2.565-1.036-5.7 0-3.135.466-5.699 1.036-5.699.57 0 1.037 2.564 1.037 5.699m46.7-4.627c2.885 1.545 2.612 5.949-.455 7.347-4.317 1.967-9.812-3.456-7.422-7.324.866-1.4 5.279-1.413 7.877-.023m193.147.13c3.341 1.523 3.386 4.479.1 6.632-3.153 2.066-6.516 1.148-8.039-2.194-2.112-4.636 2.206-7.05 7.939-4.438M26.043 41.967c2.404 4.075 3.175 4 5.036-.494 1.235-2.982 1.587-3.131 7.389-3.131h6.092v6.938c0 10.893-2.325 12.751-15.948 12.751-13.803 0-17.213-2.606-17.213-13.157v-6.532h6.253c6.046 0 6.322.119 8.391 3.625m-15.68 24.354c0 .592 3.109 1.037 7.254 1.037s7.253-.445 7.253-1.037c0-.592-3.108-1.036-7.253-1.036s-7.254.444-7.254 1.036m21.761 0c0 .585 2.936 1.037 6.736 1.037s6.736-.452 6.736-1.037c0-.584-2.936-1.036-6.736-1.036s-6.736.452-6.736 1.036" stroke="none" fill="#000" fill-rule="evenodd"/></g></svg>