<svg id="svg" version="1.1" xmlns="http://www.w3.org/2000/svg" width="400" height="53.047"><g id="svgg"><path id="path0" d="M395.709.127c-2.234.896-2.359 4.409-.198 5.558 3.245 1.724 6.133-2.564 3.429-5.091-.517-.483-2.482-.767-3.231-.467M142.41.944c-4.106 1.461-5.437 6.083-2.646 9.186 3.243 3.608 10.168 2.492 11.656-1.877 1.636-4.802-3.759-9.179-9.01-7.309m-24.671.275c-.055.241-.828 4.659-1.718 9.817l-1.618 9.378-.758-.958c-3.462-4.38-11.508-4.327-17.416.115-8.492 6.384-12.462 21.345-7.605 28.661 3.884 5.853 13.98 6.515 19.681 1.291l1.244-1.14-.336 1.845-.335 1.844h14.729l.209-1.219c.115-.67 2.099-12.088 4.408-25.373 2.31-13.286 4.199-24.278 4.199-24.428 0-.228-1.181-.272-7.292-.272h-7.293l-.099.439M27.344 2.934C13.788 4.626 3.568 13.999.664 27.401-2.939 44.035 6.58 54.211 24.488 52.87c4.122-.309 10.667-1.539 11.222-2.11.194-.198 2.396-12.914 2.261-13.049-.058-.058-.902.21-1.876.596-8.105 3.204-14.656 2.515-18.325-1.93-3.075-3.726-1.702-12.281 2.677-16.676 4.697-4.713 12.86-5.753 19.387-2.469.939.472 1.707.803 1.708.736 0-.068.529-3.145 1.174-6.838.645-3.693 1.106-6.775 1.023-6.849-.204-.184-2.482-.704-4.734-1.081-2.184-.365-9.525-.533-11.661-.266m178.897 0c-14.461.985-24.378 8.551-28.667 21.869-6.564 20.386 7.321 32.107 31.93 26.955 5.073-1.062 9.03-2.505 9.202-3.356.355-1.755 3.052-17.639 3.002-17.681-.033-.029-3.399-.096-7.479-.149l-7.42-.097-.826 4.986c-.454 2.742-.855 5.015-.891 5.051-.811.811-6.162.424-8.418-.609-7.877-3.606-4.939-19.413 4.425-23.802 4.052-1.899 12.387-1.645 17.837.543.949.381 1.757.661 1.796.622.158-.159 2.216-12.416 2.124-12.655-.189-.492-5.646-1.395-10.179-1.685-3.198-.205-3.312-.205-6.436.008m176.597 1.82c-2.502.688-3.984 2.049-5.466 5.017-1.726 3.456-2.222 4.153-3.956 5.544-4.457 3.578-7.712 4.11-13.707 2.239-12.672-3.953-25.969 3.187-29.152 15.653-2.523 9.882 1.214 17.044 10.069 19.299 4.401 1.121 16.134.136 18.774-1.575.259-.168 1.77-8.89 1.574-9.086-.053-.053-.723.115-1.489.374-4.227 1.43-9.503 1.817-12.006.879-1.643-.615-3.636-2.72-3.645-3.849-.001-.192 2.341-.244 11.067-.244h11.07l.656-4.338c.361-2.387.716-5.305.789-6.485.38-6.142 5.771-10.414 15.032-11.911 6.262-1.012 9.149-3.124 9.162-6.702.012-3.73-4.239-6.064-8.772-4.815M244.466 16.519c-3.632.248-12.227 2.039-12.938 2.697-.088.082-1.766 9.732-1.703 9.796.028.028.788-.29 1.69-.707 8.126-3.753 16.164-3.564 16.168.381l.001.699-5.751.623c-6.412.694-8.135 1.083-10.719 2.419-8.754 4.523-9.714 17.675-1.472 20.181 4.341 1.32 12.065-1.239 14.373-4.761.481-.734.49-.465.066 1.893a118.11 118.11 0 0 0-.397 2.269c0 .035 3.005.063 6.679.063h6.68l1.239-7.167a1957.12 1957.12 0 0 1 1.998-11.36c2.079-11.487-.974-16.264-10.843-16.968-2.511-.179-3.18-.187-5.071-.058m49.269.063c-3.255.45-6.467 2.053-9.164 4.576-1.187 1.11-1.242 1.139-1.123.585.209-.967.706-3.881.706-4.142 0-.191-1.592-.244-7.31-.244h-7.31l-.099.439c-.055.242-1.373 7.811-2.93 16.821-1.556 9.01-2.88 16.624-2.942 16.919l-.113.536h14.757l1.728-9.995c.95-5.497 1.88-10.398 2.065-10.891 1.451-3.847 5.61-5.268 7.079-2.42.652 1.265.501 2.744-1.367 13.36l-1.733 9.849 7.309.051c4.02.028 7.34.019 7.379-.02.039-.038.862-4.62 1.831-10.182 2.073-11.91 2.32-12.666 4.562-13.952 2.484-1.425 4.964-.082 4.979 2.695.003.656-3.194 19.342-3.605 21.069l-.105.441 7.458-.051 7.457-.051 2.019-11.409c2.567-14.508 2.647-16.105.994-19.628-2.887-6.154-13.905-5.936-20.053.396l-.866.891-.556-1.02c-1.896-3.474-6.23-5.287-11.047-4.623m-231.814.304C50.239 18.69 42.825 27.048 42.819 38.42c-.005 9.538 5.949 14.515 17.347 14.5 11.953-.017 20.185-5.889 22.903-16.339 3.481-13.387-5.831-22.06-21.148-19.695m96.517.159c-3.082.816-4.773 1.827-7.146 4.272-.617.635-1.121 1.124-1.12 1.085.001-.039.176-1.081.389-2.314.213-1.234.388-2.353.388-2.487.001-.191-1.587-.244-7.296-.244h-7.298l-.111.537c-.231 1.125-4.211 24.179-4.211 24.395 0 .195 14.622.373 14.629.178.045-1.315 2.027-11.108 2.425-11.978 2.018-4.417 7.323-4.275 7.324.196 0 .936-3.097 19.914-3.435 21.048-.097.325.307.341 7.267.293l7.37-.051 2.003-11.409c2.598-14.793 2.676-16.282 1.03-19.632-1.84-3.747-6.789-5.323-12.208-3.889m193.584 8.845c1.217.609 2.101 3.137 1.681 4.809l-.127.505h-8.542l.201-.731c1.019-3.701 4.224-5.865 6.787-4.583m-286.01 1.631c4.151 1.153 3.324 11.301-1.133 13.914-3.799 2.226-7.151.165-7.151-4.398 0-6.312 3.859-10.744 8.284-9.516m44.117-.01c4.099 1.545 2.779 11.91-1.798 14.124-3.547 1.716-6.577-.216-6.552-4.178.039-6.262 4.386-11.44 8.35-9.946m136.185 9.3c-.065 4.634-5.997 8.619-8.465 5.686-1.922-2.285.43-4.93 4.992-5.614 3.234-.485 3.479-.49 3.473-.072" stroke="none" fill="#fff" fill-rule="evenodd"/></g></svg>