<svg id="svg" xmlns="http://www.w3.org/2000/svg" width="400" height="139.36" version="1.1"><g id="svgg"><path id="path0" d="M47.081 24.064c-8.338 2.056-20.329 12.195-24.757 20.934-7.124 14.058-4.246 37.449 5.888 47.852 20.237 20.775 59.419-8.613 51.984-38.989-.608-2.486-1.452-6.878-1.876-9.76-2.033-13.849-17.113-23.521-31.239-20.037m-5.902 9.246c-2.418 1.311-6.231 4.191-8.475 6.399-4.497 4.426-4.74 4.46-2.647.374 1.583-3.092 4.572-5.563 9.352-7.733 5.249-2.384 6.591-1.656 1.77.96m104.109 2.66c-4.098 4.498-4.722 6.23-5.046 14.009-.287 6.872-.209 7.397 1.07 7.151 1.921-.37 8.415-8.631 9.018-11.473.273-1.288.922-2.851 1.441-3.472 1.24-1.485.602-6.78-.818-6.78-.576 0-1.047-.339-1.047-.753 0-1.499-2.774-.707-4.618 1.318m-88.083 1.088c9.33 5.827 14.075 34.486 7.085 42.793-4.012 4.768-16.199 7.358-20.599 4.378-9.944-6.734-12.867-36.256-4.346-43.904 5.251-4.715 13.211-6.171 17.86-3.267m258.042 11.16c-1.631 1.671-3.378 2.88-3.881 2.687-2.098-.805-13.76 1.057-18.498 2.954-11.626 4.654-23.918 18.199-23.93 26.367-.013 9.671 15.016 23.729 25.369 23.729 6.81 0 24.558-11.964 28.173-18.991 2.714-5.278 1.664-5.701-3.3-1.331-8.228 7.243-20.762 9.721-28.328 5.603-2.116-1.151-3.846-2.342-3.846-2.645 0-.304-1.466-2.199-3.258-4.212-6.051-6.798-3.926-11.412 9.274-20.137 9.116-6.025 17.043-2.278 15.815 7.475-.592 4.7-.508 5.389.813 6.727 2.134 2.162 9.352-4.63 7.356-6.92-1.075-1.233-1.016-1.812.674-6.624 1.978-5.634 2.829-16.94 1.314-17.455-.429-.146-2.115 1.102-3.747 2.773M166.1 52.305c-3.73 3.955-5.18 19.451-3.458 36.96 1.33 13.521 1.907 14.589 5.686 10.512l1.777-1.918.882 2.671c1.046 3.171 2.127 3.329 5.186.755 3.213-2.704 3.407-4.04 1.491-10.278-1.295-4.216-1.701-7.429-1.731-13.695l-.038-8.188 3.766-2.117c6.292-3.535 8.976-3.655 11.922-.53 5.273 5.59 7.147 17.746 4.122 26.732-1.863 5.532-1.726 7.572.452 6.736.842-.323 1.206-.036 1.206.95 0 2.19 2.204 1.183 6.194-2.832l3.525-3.546-.663-14.302c-1.089-23.485-2.759-27.367-11.389-26.466-5.146.538-10.944 3.055-16.091 6.984l-3.55 2.712.528-4.227c.589-4.72-.22-5.367-3.788-3.029l-1.829 1.199.454-3.835c.566-4.783-.94-5.187-4.654-1.248m67.757 4.629c-9.84 3.383-20.734 18.16-20.944 28.411-.264 12.902 7.621 19.501 24.486 20.493 13.11.771 23.01-5.463 26.881-16.926 5.851-17.323-13.595-37.763-30.423-31.978m-122.746.975c-1.657.758-4.486 2.615-6.286 4.126-4.155 3.489-4.127 3.499-3.486-1.206l.538-3.955-1.725 1.506c-1.5 1.31-1.663 1.334-1.245.189.595-1.631-.459-1.723-1.761-.153-.773.93-1.091.968-1.58.188-.988-1.575-4.55.85-6.3 4.289-.829 1.627-2.153 3.51-2.943 4.184-1.396 1.192-1.401 1.457-.156 9.823.703 4.73 1.771 13.109 2.372 18.621 1.433 13.136 2.539 14.941 6.342 10.358 1.219-1.469 2.294-1.508 2.294-.083 0 2.865 3.447 5.321 5.542 3.949 4.117-2.698 4.548-4.284 2.894-10.658-.813-3.134-1.215-5.862-.893-6.061.322-.199-.213-2.879-1.19-5.955s-1.874-7.371-1.993-9.544l-.217-3.951 3.655-1.901c5.341-2.778 12.438-2.721 15.407.123 1.162 1.114 2.479 2.025 2.926 2.025.446 0 .99.679 1.207 1.51.577 2.205 2.22 1.187 3.68-2.279.762-1.81 1.765-2.998 2.532-2.998 1.414 0 1.075-3.859-.662-7.532-2.357-4.983-12.662-7.493-18.952-4.615m32.004 2.238-4.132 3.71.165 16.094c.166 16.291 1.178 25.646 2.748 25.404.469-.072 1.416.116 2.104.419 1.592.7 4.887-1.009 7.752-4.023l2.223-2.338-1.022-5.45c-.562-2.998-1.173-12.333-1.359-20.745-.302-13.695-.467-15.268-1.578-15.039-.682.141-1.584-.193-2.005-.743-.6-.783-1.654-.2-4.896 2.711m202.752-2.54c-4.468 2.025-13.389 11.696-16.095 17.449-7.921 16.833.162 29.139 20.103 30.605 15.224 1.12 24.302-4.451 28.681-17.599l2.015-6.052-1.725-5.365c-2.413-7.506-6.851-13.733-11.991-16.828-5.124-3.085-16.43-4.275-20.988-2.21M241.161 69.581c15.641 6.433 19.775 19.239 7.562 23.423-18.434 6.317-31.731-4.398-24.193-19.493 3.105-6.217 8.165-7.413 16.631-3.93m116.6 1.261c12.629 6.731 16.22 16.656 7.615 21.046-13.933 7.108-30.979.359-29.081-11.512 1.948-12.181 9.886-15.707 21.466-9.534M71.29 79.316c-3.778 7.698-9.748 11.956-18.203 12.982-5.486.666-5.249.297 1.425-2.214 5.854-2.203 14.257-9.038 16.709-13.591 2.211-4.106 2.271-1.664.069 2.823" stroke="none" fill="#000" fill-rule="evenodd"/></g></svg>